<?xml version="1.0" encoding="iso-8859-1"?>
<!-- Generator: Adobe Illustrator 19.0.0, SVG Export Plug-In . SVG Version: 6.00 Build 0)  -->
<svg version="1.1" id="Capa_1" xmlns="http://www.w3.org/2000/svg" xmlns:xlink="http://www.w3.org/1999/xlink" x="0px" y="0px"
	 viewBox="0 0 512 512" style="enable-background:new 0 0 512 512;" xml:space="preserve">
<circle style="fill:#FFEC96;" cx="256" cy="256" r="256"/>
<path style="fill:#FFD400;" d="M511.647,269.496l-53.329-53.329c-1.708-2.621-4.03-4.929-6.963-6.687l-161.479-96.734
	c-20.855-12.494-46.895-12.494-67.75,0l-161.48,96.735c-12.276,7.354-13.972,24.279-3.836,33.954l48.876,48.872v26.13h0.744
	c2.387,18.762,10.473,33.191,22.544,43.854l148.78,148.78C404.523,500.402,505.004,397.372,511.647,269.496z"/>
<path style="fill:#004EB2;" d="M302.105,386.616h-92.211c-57.315,0-104.21-22.877-104.21-80.192l0,0h300.63l0,0
	C406.315,363.74,359.421,386.616,302.105,386.616z"/>
<path style="fill:#003D8D;" d="M406.32,306.42c0,4.19-0.25,8.2-0.74,12.02c-2.84,22.35-13.74,38.57-29.87,49.58
	c-18.89,12.88-44.95,18.6-73.6,18.6H256v-80.2L406.32,306.42L406.32,306.42z"/>
<rect x="105.69" y="278.15" style="fill:#57555C;" width="300.63" height="40.29"/>
<rect x="256" y="278.15" style="fill:#3C3B41;" width="150.32" height="40.29"/>
<path style="fill:#006EF5;" d="M222.125,112.747L60.646,209.481c-12.751,7.639-14.087,25.604-2.605,35.045l47.645,39.174h300.63
	l47.645-39.174c11.482-9.44,10.146-27.406-2.605-35.045l-161.479-96.734C269.02,100.253,242.98,100.253,222.125,112.747z"/>
<path style="fill:#004EB1;" d="M453.96,244.53l-47.64,39.17H256V103.38c11.72,0,23.45,3.12,33.88,9.37l161.47,96.73
	C464.11,217.12,465.44,235.09,453.96,244.53z"/>
<path style="fill:#FFD400;" d="M297.539,183.178l-9.431-18.283c-21.441,10.216-32.073-5.839-32.107-5.891v-0.001v0.001v-0.001v0.001
	c-0.034,0.052-10.666,16.107-32.107,5.891l-9.431,18.283c0,0,13.996,6.942,9.403,18.471c-6.585,16.529-9.754,33.447,10.705,43.363
	c14.955,7.248,21.145,14.268,21.43,14.762v0.001v-0.001l0,0v-0.001c0.285-0.494,6.475-7.514,21.43-14.762
	c20.459-9.916,17.29-26.834,10.705-43.363C283.542,190.12,297.539,183.178,297.539,183.178z"/>
<path style="fill:#FFAA20;" d="M288.137,201.65c6.585,16.528,9.754,33.447-10.706,43.361c-7.479,3.623-12.764,7.193-16.216,9.915
	s-5.071,4.601-5.214,4.849V159.004c0.036,0.051,10.668,16.107,32.108,5.891l9.43,18.285
	C297.538,183.179,283.543,190.119,288.137,201.65z"/>
<g>
</g>
<g>
</g>
<g>
</g>
<g>
</g>
<g>
</g>
<g>
</g>
<g>
</g>
<g>
</g>
<g>
</g>
<g>
</g>
<g>
</g>
<g>
</g>
<g>
</g>
<g>
</g>
<g>
</g>
</svg>
